<svg width="24" height="24" viewBox="0 0 24 24" fill="none" xmlns="http://www.w3.org/2000/svg">
<path d="M13 2.59375C13.2666 2.59375 13.5376 2.66842 13.8125 2.81836C14.0875 2.96836 14.3956 3.21061 14.7373 3.54395L19.6875 8.44336C20.2292 8.98503 20.5 9.53542 20.5 10.0938V17.5439C20.5 18.2689 20.3212 18.94 19.9629 19.5566C19.6046 20.1649 19.1165 20.6476 18.5 21.0059C17.8917 21.3642 17.225 21.5439 16.5 21.5439H7.5C6.775 21.5439 6.10397 21.3642 5.4873 21.0059C4.87916 20.6476 4.39537 20.1648 4.03711 19.5566C3.67881 18.94 3.50003 18.2689 3.5 17.5439V6.59375C3.5 5.86882 3.67884 5.20204 4.03711 4.59375C4.39544 3.97708 4.87897 3.48919 5.4873 3.13086C6.10396 2.77254 6.77501 2.59375 7.5 2.59375H13Z" fill="#F75858"/>
<path d="M13 2.59375C13.2667 2.59375 13.5375 2.66875 13.8125 2.81875C14.0875 2.96875 14.3958 3.21042 14.7375 3.54375L19.6875 8.44375C20.2292 8.98542 20.5 9.53542 20.5 10.0938H15.7125C14.8792 10.0938 14.2167 9.85208 13.725 9.36875C13.2417 8.87708 13 8.21458 13 7.38125V2.59375Z" fill="#FF928C"/>
<path d="M14.314 17.9593V14.2727H17V14.9047H15.025V15.8527H16.7366V16.4847H15.025V17.9593H14.314Z" fill="white"/>
<path d="M10.4692 17.9593V14.2727H11.7332C12.8392 14.2727 13.6029 14.9047 13.6029 16.116C13.6029 17.3274 12.8656 17.9593 11.7596 17.9593H10.4692ZM11.6806 17.3274C12.3916 17.3274 12.8919 17.0377 12.8919 16.116C12.8919 15.1944 12.3916 14.9047 11.6806 14.9047H11.1802V17.3274H11.6806Z" fill="white"/>
<path d="M7 17.9593V14.2727H8.659C9.37 14.2727 9.84399 14.694 9.84399 15.4314C9.84399 16.1687 9.37 16.5953 8.659 16.5953H7.711V17.9593H7ZM8.58 15.9633C8.94866 15.9633 9.133 15.7474 9.133 15.4314C9.133 15.1154 8.94866 14.9047 8.58 14.9047H7.711V15.9633H8.58Z" fill="white"/>
</svg>
